<?xml version="1.0" encoding="UTF-8" standalone="no"?>
<!DOCTYPE svg PUBLIC "-//W3C//DTD SVG 1.1//EN" "http://www.w3.org/Graphics/SVG/1.1/DTD/svg11.dtd">
<svg width="100%" height="100%" viewBox="0 0 1280 640" version="1.1" xmlns="http://www.w3.org/2000/svg" xmlns:xlink="http://www.w3.org/1999/xlink" xml:space="preserve" xmlns:serif="http://www.serif.com/" style="fill-rule:evenodd;clip-rule:evenodd;stroke-linejoin:round;stroke-miterlimit:2;">
    <g id="Artboard1" transform="matrix(1.82857,0,0,1.10038,0,0)">
        <rect x="0" y="0" width="700" height="581.616" style="fill:none;"/>
        <clipPath id="_clip1">
            <rect x="0" y="0" width="700" height="581.616"/>
        </clipPath>
        <g clip-path="url(#_clip1)">
            <g transform="matrix(0.546875,0,0,0.908775,0,0)">
                <rect x="-99.934" y="-112.937" width="1566.26" height="896.224" style="fill:white;"/>
            </g>
            <g transform="matrix(0.405122,0,0,0.673215,29.7374,101.706)">
                <path d="M584.5,140C583.629,138.746 582.414,137.773 581,137.199L353.5,46.199C351.371,45.324 348.981,45.324 346.852,46.199L119.352,137.199C117.938,137.773 116.723,138.746 115.852,140C114.949,141.281 114.461,142.809 114.449,144.375L114.449,416.495C114.418,420.042 116.574,423.241 119.875,424.546L347.375,515.546C349.492,516.479 351.906,516.479 354.024,515.546L581.524,424.546C584.824,423.241 586.981,420.042 586.949,416.495L586.949,143.495C586.481,142.12 585.629,140.909 584.5,139.995L584.5,140ZM350,225.051L302.75,206.153L503.48,123.551L553.527,143.5L350,225.051ZM204.93,185.852L270.555,212.278L270.555,275.801L204.93,246.926L204.93,185.852ZM219.453,172.903L420.003,90.126L479.855,114.103L280.005,196.876L219.453,172.903ZM350.003,61.953L397.253,80.851L196.003,163.453L146.128,143.504L350.003,61.953ZM358.753,494.553L358.753,325.503C358.753,320.671 354.835,316.753 350.003,316.753C345.171,316.753 341.253,320.671 341.253,325.503L341.253,494.553L131.253,410.553L131.253,156.453L187.429,178.851L187.429,252.703C187.46,256.18 189.511,259.324 192.679,260.754L275.804,297.504C276.96,297.734 278.148,297.734 279.304,297.504C281.035,297.496 282.73,297.012 284.202,296.105C286.64,294.457 288.085,291.695 288.054,288.754L288.054,218.754L340.554,239.93L340.554,288.578C340.554,293.41 344.472,297.328 349.304,297.328C354.136,297.328 358.054,293.41 358.054,288.578L358.054,240.453L568.054,156.453L568.054,410.553L358.753,494.553Z" style="fill-rule:nonzero;"/>
            </g>
            <g transform="matrix(0.114417,-0.023528,0.0180295,0.242117,172.888,266.877)">
                <path d="M476,224C476,224 467.602,266 420,280C420,280 526.61,158.827 361.411,-6.373C361.411,-6.373 314.147,121.738 225.126,243.782C225.126,243.782 73.07,437.871 238.269,549.871C249.617,557.815 273.278,563.489 287.681,563.901C308.817,564.506 333.466,565.199 353.45,565.199C333.848,565.199 305.204,551.598 288.403,543.2C196.005,481.598 282.801,372.4 282.801,372.4C327.602,322.002 336,252 336,252C414.398,330.398 389.199,406 389.199,406C417.199,397.602 420,364 420,364C467.602,431.199 445.199,498.4 417.2,529.2C405.561,540.839 385.861,548.445 366.477,552.952C357.88,554.95 349.344,556.339 341.602,557.2C386.403,554.399 439.603,537.603 473.202,506.802C523.604,448.001 574.002,350.002 476.002,224.002L476,224Z" style="fill:rgb(177,35,10);fill-rule:nonzero;"/>
            </g>
            <g transform="matrix(0.990325,0,0,1.64568,-674.484,127.449)">
                <text x="1000.89px" y="64.723px" style="font-family:'MADETOMMY-Bold', 'MADE TOMMY';font-weight:700;font-size:72px;fill:rgb(177,35,10);">t<tspan x="1029.69px 1072.46px 1100.68px 1139.42px " y="64.723px 64.723px 64.723px 64.723px ">orch</tspan></text>
                <text x="1182.4px" y="64.723px" style="font-family:'MADETOMMY-Bold', 'MADE TOMMY';font-weight:700;font-size:72px;">app</text>
            </g>
            <g transform="matrix(0.990325,0,0,1.64568,-634.243,281.354)">
                <text x="1000.89px" y="64.723px" style="font-family:'MADETOMMY', 'MADE TOMMY';font-size:26.506px;">PyT<tspan x="1042.95px 1058.91px 1067.92px 1082.4px " y="64.723px 64.723px 64.723px 64.723px ">orch</tspan> packaged.</text>
            </g>
        </g>
    </g>
</svg>
